<svg xmlns="http://www.w3.org/2000/svg" viewBox="0 0 512 512"><!--!Font Awesome Free 6.7.2 by @fontawesome - https://fontawesome.com License - https://fontawesome.com/license/free Copyright 2025 Fonticons, Inc.--><path d="M32 384a95.4 95.4 0 0 0 32 71.1V496a16 16 0 0 0 16 16h32a16 16 0 0 0 16-16V480H384v16a16 16 0 0 0 16 16h32a16 16 0 0 0 16-16V455.1A95.4 95.4 0 0 0 480 384V336H32zM496 256H80V69.3a21.3 21.3 0 0 1 36.3-15l19.3 19.3c-13.1 29.9-7.6 59.1 8.6 79.7l-.2 .2A16 16 0 0 0 144 176l11.3 11.3a16 16 0 0 0 22.6 0L283.3 81.9a16 16 0 0 0 0-22.6L272 48a16 16 0 0 0 -22.6 0l-.2 .2c-20.6-16.2-49.8-21.8-79.7-8.6L150.2 20.3A69.3 69.3 0 0 0 32 69.3V256H16A16 16 0 0 0 0 272v16a16 16 0 0 0 16 16H496a16 16 0 0 0 16-16V272A16 16 0 0 0 496 256z"/></svg>